<svg xmlns="http://www.w3.org/2000/svg" viewBox="0 0 1200 900" role="img" aria-label="Blog cover placeholder">
  <defs>
    <linearGradient id="g" x1="0" y1="0" x2="1" y2="1">
      <stop offset="0%" stop-color="#eaf3ee"/>
      <stop offset="100%" stop-color="#d9e8df"/>
    </linearGradient>
    <filter id="shadow" x="-20%" y="-20%" width="140%" height="140%">
      <feDropShadow dx="0" dy="18" stdDeviation="20" flood-color="#0f332f" flood-opacity=".18"/>
    </filter>
  </defs>
  <rect width="1200" height="900" fill="url(#g)"/>
  <circle cx="980" cy="120" r="220" fill="rgba(255,255,255,.09)"/>
  <circle cx="150" cy="760" r="260" fill="rgba(255,255,255,.08)"/>
  <g filter="url(#shadow)">
    <rect x="120" y="120" width="960" height="660" rx="44" fill="rgba(255,255,255,.10)" stroke="rgba(255,255,255,.18)"/>
    <rect x="170" y="170" width="510" height="560" rx="34" fill="rgba(255,255,255,.88)"/>
    <rect x="730" y="170" width="300" height="170" rx="30" fill="rgba(255,255,255,.86)"/>
    <rect x="730" y="360" width="300" height="170" rx="30" fill="rgba(255,255,255,.86)"/>
    <rect x="730" y="550" width="300" height="180" rx="30" fill="rgba(255,255,255,.86)"/>
    <circle cx="420" cy="360" r="118" fill="#eaf3ee" opacity=".18"/>
    <circle cx="420" cy="360" r="80" fill="#1f6b63" opacity=".22"/>
    <rect x="290" y="520" width="260" height="22" rx="11" fill="#eaf3ee" opacity=".22"/>
    <rect x="250" y="560" width="340" height="14" rx="7" fill="#eaf3ee" opacity=".15"/>
    <rect x="250" y="588" width="320" height="14" rx="7" fill="#eaf3ee" opacity=".15"/>
    <rect x="250" y="616" width="280" height="14" rx="7" fill="#eaf3ee" opacity=".15"/>
    <circle cx="205" cy="237" r="14" fill="#eaf3ee"/>
    <rect x="235" y="228" width="190" height="14" rx="7" fill="#eaf3ee" opacity=".2"/>
    <rect x="235" y="255" width="130" height="12" rx="6" fill="#eaf3ee" opacity=".12"/>
    <circle cx="205" cy="423" r="14" fill="#1f6b63"/>
    <rect x="235" y="414" width="180" height="14" rx="7" fill="#eaf3ee" opacity=".2"/>
    <rect x="235" y="441" width="140" height="12" rx="6" fill="#eaf3ee" opacity=".12"/>
    <circle cx="205" cy="488" r="14" fill="#eaf3ee"/>
    <rect x="235" y="479" width="170" height="14" rx="7" fill="#eaf3ee" opacity=".2"/>
    <rect x="235" y="506" width="145" height="12" rx="6" fill="#eaf3ee" opacity=".12"/>
    <rect x="780" y="205" width="200" height="18" rx="9" fill="#1f6b63" opacity=".18"/>
    <rect x="780" y="240" width="160" height="12" rx="6" fill="#1f6b63" opacity=".12"/>
    <rect x="780" y="395" width="180" height="18" rx="9" fill="#1f6b63" opacity=".18"/>
    <rect x="780" y="430" width="140" height="12" rx="6" fill="#1f6b63" opacity=".12"/>
    <rect x="780" y="585" width="170" height="18" rx="9" fill="#1f6b63" opacity=".18"/>
    <rect x="780" y="620" width="150" height="12" rx="6" fill="#1f6b63" opacity=".12"/>
  </g>
  <text x="80" y="845" fill="rgba(255,255,255,.84)" font-family="Arial, sans-serif" font-size="34" font-weight="700">Blog cover placeholder</text>
  <text x="80" y="880" fill="rgba(255,255,255,.72)" font-family="Arial, sans-serif" font-size="22">Replace with article image later</text>
</svg>